<?xml version="1.0" encoding="iso-8859-1"?><!-- Generator: Adobe Illustrator 22.1.0, SVG Export Plug-In . SVG Version: 6.00 Build 0)  --><svg xmlns="http://www.w3.org/2000/svg" xmlns:xlink="http://www.w3.org/1999/xlink" viewBox="0 0 48 48" width="48px" height="48px"><path style="fill:#6D4C41;" d="M24,3c11.046,0,20,8.954,20,20s-8.954,20-20,20S4,34.046,4,23c0-6,3-8,3-8C9,6,15.787,3,24,3z"/><g><circle style="fill:#FFD391;" cx="38.5" cy="32.5" r="4.5"/><circle style="fill:#FFD391;" cx="9.5" cy="32.5" r="4.5"/><circle style="fill:#FFD391;" cx="24" cy="29" r="17"/></g><path style="fill:#BF360C;" d="M27.935,40.426C27.623,39.293,25.987,38,24,38s-3.623,1.293-3.935,2.426  C20.026,40.544,20,40.669,20,40.8c0,0.663,0.537,1.2,1.2,1.2c0.8,0,1.2-1,2.8-1s2,1,2.8,1c0.663,0,1.2-0.537,1.2-1.2  C28,40.669,27.974,40.544,27.935,40.426z"/><g><path style="fill:#FCF5EA;" d="M25.41,35.41C25.02,35.8,24.51,36,24,36s-1.02-0.2-1.41-0.59l-1.5-1.5l2.82-2.82l1.5,1.5   C26.2,33.37,26.2,34.63,25.41,35.41z"/></g><g><circle style="fill:#FAFAFA;" cx="32" cy="28" r="6"/><circle style="fill:#FAFAFA;" cx="16" cy="28" r="6"/></g><g><circle style="fill:#212121;" cx="32" cy="29" r="1"/><circle style="fill:#212121;" cx="16" cy="29" r="1"/></g></svg>